<?xml version="1.0" encoding="utf-8"?>
<!-- Generator: Adobe Illustrator 26.5.0, SVG Export Plug-In . SVG Version: 6.00 Build 0)  -->
<svg version="1.1" id="Layer_1" xmlns="http://www.w3.org/2000/svg" xmlns:xlink="http://www.w3.org/1999/xlink" x="0px" y="0px"
	 viewBox="0 0 20 20" style="enable-background:new 0 0 20 20;" xml:space="preserve">
<style type="text/css">
	.st0{fill:#FFA0AB;}
	.st1{fill:#FFC3C8;}
	.st2{fill:#FFDCDF;}
	.st3{fill:#FE8596;}
</style>
<g>
	<g>
		<path class="st0" d="M17.3,2.1c-0.4-0.2-1.1-0.1-1.6,0.3c-1.6,1.4-4.3,2.1-5.2,2.1c0,0-0.1-0.4-0.3-0.5c0.1-0.2,0.1-0.2,0.3-0.3
			c0.4,0,0.7-0.3,1-0.5c-0.4-0.3-0.9-0.8-1.4-1.1c-0.1,0.4-0.5,0.8-0.6,1.1c-1.2-1.1-3-0.4-3.9,1.1c0,0-0.1,0.1-0.1,0.1
			S4.8,3.8,4.4,3.5C4.1,4.1,3.9,4.7,3.7,4.8C3.3,5,2.9,5.2,2.5,5.4c0.3,0.6,1,1.2,1.3,1.7C3.6,7.9,3.3,8.8,3.3,9.6
			c-0.4,0.1-0.9,0.3-1.2,0.7c-0.2,0.2-0.3,0.7,0,1c0.2,0.2,0.5,0.2,1.1,0.1c-0.5,1.5,0.1,3.6,1.3,3.8c-0.1,0.3-0.3,0.7-0.2,1
			c0.1,0.4,0.4,0.5,0.7,0.4c0.5-0.2,0.8-0.6,1-1c1,0,1.5-0.3,2.4-0.7c0.1,0,0.4,0.1,0.4,0.1S8.2,15.3,8,15.6c-0.4,0.4-0.5,0.9,0,1.1
			c0.7,0.3,1.6,0,2.3-0.6c0.7,0.2,0.9,1.1,0.3,1.9c0.6-0.4,1.2-1.3,0.8-2.2c-0.1-0.2-0.3-0.4-0.5-0.5c-0.1,0-0.3-0.1-0.3-0.1
			s0-0.9-1-0.9c0.3-0.2,0.7-0.8,0.7-0.8s0.4,0.1,0.6,0.1c0.2-0.1,0.4-0.4,0.4-0.6c-0.1-0.4-0.6-0.4-0.6-0.4l0-0.7
			c0,0,0.4,0.1,0.6,0.2c0.7,0.4,1.1,1,1.8,1.5c0.3,0.2,0.8,0.3,1.2,0.3c0.3-0.1,0.6-0.2,0.9-0.4c0.5-0.4,0.8-0.7,1-1.1
			c1.4-2.3,1.9-4.6,1.9-7.4C18.1,4.1,18.2,2.6,17.3,2.1z M10.2,2.5c0,0,0.2,0.1,0.4,0.3c0.2,0.2,0.6,0.5,0.6,0.5l-0.4,0.1l-0.5-0.1
			c0,0,0,0.2-0.1,0.4C10,3.6,10.2,3.4,9.7,3.2C9.9,3,10.2,2.5,10.2,2.5z M11.1,15.9c0.3,0.4,0.2,1.1,0,1.5c0-0.5,0.2-0.8-0.5-1.5
			c-0.3-0.3-0.7-0.3-1.1-0.4c-0.1,0-0.3,0-0.4,0.1c-0.2,0-0.3,0.2-0.3,0.5c0,0,0.5,0,0.9-0.2c0.4,0.2-0.1,0.4-0.1,0.4
			c0,0.1-1.3,0.5-1.5-0.1c-0.1-0.2,0.1-0.9,1.2-1C9.9,15.1,10.8,15.5,11.1,15.9z M9.7,14.5c0.3,0,0.4,0.2,0.5,0.5c0,0,0,0.1,0,0.1
			c-0.3-0.2-0.6-0.2-0.9-0.2c-0.1,0-0.1,0-0.1-0.1C9.3,14.6,9.5,14.5,9.7,14.5z M10.9,12.8c0.1,0.4-0.2,0.5-0.3,0.3
			c-0.1-0.1,0-0.3,0.1-0.4C10.7,12.8,10.9,12.8,10.9,12.8z M13,12.7c-1.3-1.2-3.3-1.8-4.2-1.8c-0.1,0-0.1,0.2-0.1,0.2
			s0.9,0.2,1.2,0.6c0.3,0.3,0.3,0.8,0.2,1.2c-0.4,1.3-1.7,1.8-2.9,2.4c-0.4,0.2-1,0.2-1-0.5c-0.2,0.5-0.5,1.5-1.1,1.5
			c-0.1,0-0.4-0.1-0.4-0.4c0-0.4,0.2-1.3,0.6-1.8c0-0.1-0.1-0.1-0.2,0.1c-0.1,0.2-0.3,0.7-0.5,0.7c-1,0-1.3-1.7-1.3-2.4
			c0-0.8,0.4-1.1,0.7-1.5c-0.6,0.2-1,0.4-1.4,0.2c-0.2-0.1-0.2-0.3-0.2-0.5c0.1-0.2,0.2-0.4,0.3-0.5C2.9,10,3,10,3.2,9.9
			C3.7,9.8,3.9,10,4.1,9.8C4,9.7,3.6,9.6,3.6,9.5c0-0.6,0.1-1.2,0.3-1.9C4,7.5,4,7.5,4.1,7.4c0.2,0,0.2,0.1,0.3,0.2
			c0.3,0.2,0.6,0,0.7-0.3c0.3-0.6,0-1.3-0.1-2c0,0,0-0.4-0.2-0.2C5,5.7,5.1,6.2,5,6.8c0,0.3-0.1,0.5-0.4,0.5c-0.1,0-0.2,0-0.3-0.1
			C4,6.6,3.2,5.5,3.2,5.5S3.8,5.2,4,5.1C4.2,5,4.3,4.4,4.5,4.1c0.4,0.2,0.8,0.4,1.1,0.6c0.7-0.9,1.5-1.8,2.8-1.6
			c0.5,0.1,1,0.3,1.2,0.5c0.2,0.2,0.6,0.7,0.7,1.2c1,0,1.8-0.2,2.8-0.5c0.4-0.1,0.7-0.3,1.1-0.4C14.5,3.8,15,3.6,15.7,3
			c-1.5,1.3-2.3,3.2-2.8,5.2c-0.2,1-0.4,3.2-0.2,3.8C12.8,12.3,12.9,12.4,13,12.7z M17.8,4.4c0.2,1,0,2.6-0.3,3.8
			c-0.3,1.2-1.3,4.2-2.8,4.9c-0.7,0.3-1.3-0.2-1.5-1.1c-0.3-1.7,0.1-5.8,2.1-8.3c0.4-0.5,1.3-1.1,1.7-1C17.4,3,17.7,3.8,17.8,4.4z"
			/>
	</g>
	<path class="st0" d="M17.3,2.1c-0.4-0.2-1.1-0.1-1.6,0.3c-1.6,1.4-4.3,2.1-5.2,2.1c0,0-0.1-0.4-0.3-0.5c0.1-0.2,0.1-0.2,0.3-0.3
		c0.4,0,0.7-0.3,1-0.5c-0.4-0.3-0.9-0.8-1.4-1.1c-0.1,0.4-0.5,0.8-0.6,1.1c-1.2-1.1-3-0.4-3.9,1.1c0,0-0.1,0.1-0.1,0.1
		S4.8,3.8,4.4,3.5C4.1,4.1,3.9,4.7,3.7,4.8C3.3,5,2.9,5.2,2.5,5.4c0.3,0.6,1,1.2,1.3,1.7C3.6,7.9,3.3,8.8,3.3,9.6
		c-0.4,0.1-0.9,0.3-1.2,0.7c-0.2,0.2-0.3,0.7,0,1c0.2,0.2,0.5,0.2,1.1,0.1c-0.5,1.5,0.1,3.6,1.3,3.8c-0.1,0.3-0.3,0.7-0.2,1
		c0.1,0.4,0.4,0.5,0.7,0.4c0.5-0.2,0.8-0.6,1-1c1,0,1.5-0.3,2.4-0.7c0.1,0,0.4,0.1,0.4,0.1S8.2,15.3,8,15.6c-0.4,0.4-0.5,0.9,0,1.1
		c0.7,0.3,1.6,0,2.3-0.6c0.7,0.2,0.9,1.1,0.3,1.9c0.6-0.4,1.2-1.3,0.8-2.2c-0.1-0.2-0.3-0.4-0.5-0.5c-0.1,0-0.3-0.1-0.3-0.1
		s0-0.9-1-0.9c0.3-0.2,0.7-0.8,0.7-0.8s0.4,0.1,0.6,0.1c0.2-0.1,0.4-0.4,0.4-0.6c-0.1-0.4-0.6-0.4-0.6-0.4l0-0.7
		c0,0,0.4,0.1,0.6,0.2c0.7,0.4,1.1,1,1.8,1.5c0.3,0.2,0.8,0.3,1.2,0.3c0.3-0.1,0.6-0.2,0.9-0.4c0.5-0.4,0.8-0.7,1-1.1
		c1.4-2.3,1.9-4.6,1.9-7.4C18.1,4.1,18.2,2.6,17.3,2.1z M17.8,4.4c0.2,1,0,2.6-0.3,3.8c-0.3,1.2-1.3,4.2-2.8,4.9
		c-0.7,0.3-1.3-0.2-1.5-1.1c-0.3-1.7,0.1-5.8,2.1-8.3c0.4-0.5,1.3-1.1,1.7-1C17.4,3,17.7,3.8,17.8,4.4z"/>
	<path class="st1" d="M14.1,13.4c1.1,0.4,2.8-1.9,3.5-5c0.6-3.1,0.3-5.7-0.5-6c-0.7-0.3-3.1,1.9-3.8,5.2
		C12.6,10.7,12.7,13,14.1,13.4z"/>
	<g>
		<path class="st2" d="M7.6,5.3C7.4,5.1,7,4.6,7.2,4.4c0.1-0.1,0.3-0.1,0.3-0.2c0-0.1,0-0.3,0.1-0.4c0.4-0.5,1.2-0.5,1.7-0.2
			C9.8,4,10.2,4.7,9.8,5.1C9.3,5.8,8.3,5.8,7.6,5.3z"/>
		<path class="st2" d="M16.5,3.4c-0.1-0.1-0.2-0.2-0.1-0.4c0.2-0.2,0.5-0.2,0.7-0.1c1.2,0.9,0.8,3.7,0.5,5.3c-0.3,1.4-1,3-1.9,4.2
			c-0.4,0.4-0.9,1-1.6,0.8c0-0.6,0.9-0.7,1.2-1.1c0.1-0.2,0.5-1,0.6-1.5c0,0.2,0.9-1.8,1.1-3.1c0.2-0.9,0.3-1.7,0.2-2.6
			c0-0.2,0.3-0.3,0.3-0.5c0,0,0-0.2-0.1-0.2c-0.2,0.1-0.2,0.3-0.4,0.5c-0.1-0.2,0-0.4,0-0.7c0,0.1-0.2-0.1-0.2-0.4
			C16.7,3.5,16.6,3.7,16.5,3.4z"/>
		<path class="st2" d="M15,5.8c-0.6,1.5-0.8,3.4-0.8,5.1c0,0.7,0.4,1.4,0.3,1.4c-0.7-0.4-0.8-1.6-0.7-2C14,8,14.3,5,16.2,4
			C15.7,4.4,15.2,5.2,15,5.8z"/>
	</g>
	<path class="st3" d="M6.2,14.3c0.2-0.7,0.8-0.8,0.9-0.8c0.2,0,0.6,0.4,0.8,0.4c0.2,0,0.9,0,1.4-0.7c0.5-0.6,0.6-1,0.4-1.3
		c-0.2-0.3,0-0.4-0.6-0.5c-0.6-0.1-0.5,0-0.8-0.1C8,11.3,7.9,11.1,8,10.8c0-0.3,0.5-0.5,0.9-0.5c0.4,0,1.3,0.2,1.4,0.2
		c0.1,0,1.3,0.3,1.5,0.1c0.2-0.1,0.3-0.1,0.4-0.4c0.1-0.3,0.1-0.2,0.3-0.5c0.2-0.4,0.3-0.5,0.3-0.5l0,1.5l0.2,1.5l0.1,0.6l-0.9-0.5
		l-0.6-0.5L11,11.8l-0.4-0.1l-0.1,0.4l0,0.9l-1.3,1.5L8,15l-1,0.4l-0.8-0.1"/>
	<path class="st3" d="M5.1,10.8c0.5,0.5-1,1.3-0.3,2.1c0.2,0.3,0.4,0,0.6,0.1c0.2,0.1,0.3,0.2,0.4,0.4c0,0.2,0,0.4-0.1,0.5
		c-0.2,0.1-0.2,0-0.3,0.2c-0.1,0.1-0.1,0.3-0.1,0.3l-0.3,0.5l-0.1,0.2L4.2,15l-0.4-0.4l-0.4-1l-0.2-0.8l0-0.8l0.2-0.5l0.4-0.3
		c0,0,0.2-0.2,0.5-0.3C4.6,10.7,4.9,10.6,5.1,10.8z"/>
	<path class="st3" d="M3.8,9.7l1.6,0.4c0,0,0.3,0.1,0.5,0C6,10.1,6.2,10,6.2,9.6C6.2,9.2,6,9,5.9,8.8C5.9,8.6,5.7,8.3,5.6,8.1
		c-0.1-0.2-0.1-0.5,0-0.6c0.1-0.2,0-0.3,0.2-0.6C5.9,6.5,5.9,6.4,6,6.2C6,6,5.8,5.6,5.7,5.5C5.7,5.4,5.5,5.1,5.4,5
		C5.4,4.9,5.3,4.8,5.2,4.8C5.1,4.9,5.1,4.9,5.1,5c0,0.1,0,0.4,0,0.4l0,0.2l0,0.4l0,0.4l0,0.2L5,7.1L4.9,7.3L4.7,7.5L4.2,7.3L4,7.3
		L3.8,7.5L3.6,8.4L3.4,9.5l0.1,0.2"/>
	<path d="M17.3,2.1c-0.4-0.2-1.1-0.1-1.6,0.3c-1.6,1.4-4.3,2.1-5.2,2.1c0,0-0.1-0.4-0.3-0.5c0.1-0.2,0.1-0.2,0.3-0.3
		c0.4,0,0.7-0.3,1-0.5c-0.4-0.3-0.9-0.8-1.4-1.1c-0.1,0.4-0.5,0.8-0.6,1.1c-1.2-1.1-3-0.4-3.9,1.1c0,0-0.1,0.1-0.1,0.1
		S4.8,3.8,4.4,3.5C4.1,4.1,3.9,4.7,3.7,4.8C3.3,5,2.9,5.2,2.5,5.4c0.3,0.6,1,1.2,1.3,1.7C3.6,7.9,3.3,8.8,3.3,9.6
		c-0.4,0.1-0.9,0.3-1.2,0.7c-0.2,0.2-0.3,0.7,0,1c0.2,0.2,0.5,0.2,1.1,0.1c-0.5,1.5,0.1,3.6,1.3,3.8c-0.1,0.3-0.3,0.7-0.2,1
		c0.1,0.4,0.4,0.5,0.7,0.4c0.5-0.2,0.8-0.6,1-1c1,0,1.5-0.3,2.4-0.7c0.1,0,0.4,0.1,0.4,0.1S8.2,15.3,8,15.6c-0.4,0.4-0.5,0.9,0,1.1
		c0.7,0.3,1.6,0,2.3-0.6c0.7,0.2,0.9,1.1,0.3,1.9c0.6-0.4,1.2-1.3,0.8-2.2c-0.1-0.2-0.3-0.4-0.5-0.5c-0.1,0-0.3-0.1-0.3-0.1
		s0-0.9-1-0.9c0.3-0.2,0.7-0.8,0.7-0.8s0.4,0.1,0.6,0.1c0.2-0.1,0.4-0.4,0.4-0.6c-0.1-0.4-0.6-0.4-0.6-0.4l0-0.7
		c0,0,0.4,0.1,0.6,0.2c0.7,0.4,1.1,1,1.8,1.5c0.3,0.2,0.8,0.3,1.2,0.3c0.3-0.1,0.6-0.2,0.9-0.4c0.5-0.4,0.8-0.7,1-1.1
		c1.4-2.3,1.9-4.6,1.9-7.4C18.1,4.1,18.2,2.6,17.3,2.1z M10.2,2.5c0,0,0.2,0.1,0.4,0.3c0.2,0.2,0.6,0.5,0.6,0.5l-0.4,0.1l-0.5-0.1
		c0,0,0,0.2-0.1,0.4C10,3.6,10.2,3.4,9.7,3.2C9.9,3,10.2,2.5,10.2,2.5z M11.1,15.9c0.3,0.4,0.2,1.1,0,1.5c0-0.5,0.2-0.8-0.5-1.5
		c-0.3-0.3-0.7-0.3-1.1-0.4c-0.1,0-0.3,0-0.4,0.1c-0.2,0-0.3,0.2-0.3,0.5c0,0,0.5,0,0.9-0.2c0.4,0.2-0.1,0.4-0.1,0.4
		c0,0.1-1.3,0.5-1.5-0.1c-0.1-0.2,0.1-0.9,1.2-1C9.9,15.1,10.8,15.5,11.1,15.9z M9.7,14.5c0.3,0,0.4,0.2,0.5,0.5c0,0,0,0.1,0,0.1
		c-0.3-0.2-0.6-0.2-0.9-0.2c-0.1,0-0.1,0-0.1-0.1C9.3,14.6,9.5,14.5,9.7,14.5z M10.9,12.8c0.1,0.4-0.2,0.5-0.3,0.3
		c-0.1-0.1,0-0.3,0.1-0.4C10.7,12.8,10.9,12.8,10.9,12.8z M13,12.7c-1.3-1.2-3.3-1.8-4.2-1.8c-0.1,0-0.1,0.2-0.1,0.2
		s0.9,0.2,1.2,0.6c0.3,0.3,0.3,0.8,0.2,1.2c-0.4,1.3-1.7,1.8-2.9,2.4c-0.4,0.2-1,0.2-1-0.5c-0.2,0.5-0.5,1.5-1.1,1.5
		c-0.1,0-0.4-0.1-0.4-0.4c0-0.4,0.2-1.3,0.6-1.8c0-0.1-0.1-0.1-0.2,0.1c-0.1,0.2-0.3,0.7-0.5,0.7c-1,0-1.3-1.7-1.3-2.4
		c0-0.8,0.4-1.1,0.7-1.5c-0.6,0.2-1,0.4-1.4,0.2c-0.2-0.1-0.2-0.3-0.2-0.5c0.1-0.2,0.2-0.4,0.3-0.5C2.9,10,3,10,3.2,9.9
		C3.7,9.8,3.9,10,4.1,9.8C4,9.7,3.6,9.6,3.6,9.5c0-0.6,0.1-1.2,0.3-1.9C4,7.5,4,7.5,4.1,7.4c0.2,0,0.2,0.1,0.3,0.2
		c0.3,0.2,0.6,0,0.7-0.3c0.3-0.6,0-1.3-0.1-2c0,0,0-0.4-0.2-0.2C5,5.7,5.1,6.2,5,6.8c0,0.3-0.1,0.5-0.4,0.5c-0.1,0-0.2,0-0.3-0.1
		C4,6.6,3.2,5.5,3.2,5.5S3.8,5.2,4,5.1C4.2,5,4.3,4.4,4.5,4.1c0.4,0.2,0.8,0.4,1.1,0.6c0.7-0.9,1.5-1.8,2.8-1.6
		c0.5,0.1,1,0.3,1.2,0.5c0.2,0.2,0.6,0.7,0.7,1.2c1,0,1.8-0.2,2.8-0.5c0.4-0.1,0.7-0.3,1.1-0.4C14.5,3.8,15,3.6,15.7,3
		c-1.5,1.3-2.3,3.2-2.8,5.2c-0.2,1-0.4,3.2-0.2,3.8C12.8,12.3,12.9,12.4,13,12.7z M17.8,4.4c0.2,1,0,2.6-0.3,3.8
		c-0.3,1.2-1.3,4.2-2.8,4.9c-0.7,0.3-1.3-0.2-1.5-1.1c-0.3-1.7,0.1-5.8,2.1-8.3c0.4-0.5,1.3-1.1,1.7-1C17.4,3,17.7,3.8,17.8,4.4z
		 M9.4,4.1C9.1,4,9.2,4.4,9.1,4.4c-0.4-0.1-0.4-1-1-0.8C7.7,3.8,7.6,4.4,7.5,4.9c0.4,0.4,0.2-1.1,0.8-1C8.5,4,8.6,4.3,8.8,4.4
		C8.5,4.5,8.4,5,8.7,5.3c0.1,0.1,0.2,0.1,0.3,0C9,5.2,8.9,5.2,8.8,5.2C8.6,5,8.7,4.8,8.7,4.7c0.1-0.2,0.1,0,0.2,0.2
		c0,0.1,0,0.2,0,0.3C9.2,5.2,9,4.6,9,4.6S9.4,4.5,9.4,4.1z M9.6,4.4c0,0.1-0.1,0.1,0,0.2c0,0.1,0,0.3,0.1,0.4c0.2,0,0.3-0.4,0.1-0.6
		C9.8,4.3,9.7,4.3,9.6,4.4z M9.8,4.6c0,0.1,0,0.1,0,0.2c0,0.1-0.1,0-0.1,0c0,0,0-0.1,0-0.2c0-0.1,0-0.1,0-0.1
		C9.7,4.5,9.7,4.5,9.8,4.6z M8.9,12.6C9,12.5,9,12.2,9,12.1C8.8,12,8.6,12.5,8.9,12.6z M15.8,5.5c0-0.3,0.1-0.5,0-0.7
		c-0.1-0.3,0.5-0.4,0.3-0.9c-0.9,0.6-1.4,2.4-1.7,3.8c-0.3,1.4-0.6,3.5,0,4.4c-0.3-1,0.2-0.8,0.7-3.1C15.4,7.9,15.8,6.8,15.8,5.5z
		 M16.2,7.2c-0.2,1.3-0.6,3.2-0.1,4c-0.2-0.8,0.5-1.3,0.8-3.3c0.2-1,0.3-1.3,0.3-3c0-0.1,0.4-0.4,0.2-0.5
		C16.6,5.1,16.3,6.5,16.2,7.2z"/>
</g>
</svg>
